<svg xmlns="http://www.w3.org/2000/svg" viewBox="0 0 48 48" role="img" aria-label="Firefox debugging">
  <rect width="48" height="48" rx="14" fill="#f2f2f2"/>
  <path fill="#080808" d="M14 13h20c2.2 0 4 1.8 4 4v15c0 2.2-1.8 4-4 4H14c-2.2 0-4-1.8-4-4V17c0-2.2 1.8-4 4-4Zm0 3c-.6 0-1 .4-1 1v3h22v-3c0-.6-.4-1-1-1H14Zm-1 7v9c0 .6.4 1 1 1h20c.6 0 1-.4 1-1v-9H13Z"/>
  <path fill="#f2f2f2" d="M21 27.1c0-1.7 1.3-3.1 3-3.1s3 1.4 3 3.1v2.4c0 1.7-1.3 3.1-3 3.1s-3-1.4-3-3.1v-2.4Zm-3.5.4h2.3v1.7h-2.3v-1.7Zm10.7 0h2.3v1.7h-2.3v-1.7Zm-8.7-3.1 1.1-1.1 1.6 1.6-1.1 1.1-1.6-1.6Zm6.3.5 1.6-1.6 1.1 1.1-1.6 1.6-1.1-1.1ZM22.4 22h3.2v1.8h-3.2V22Z"/>
</svg>
