<svg xmlns="http://www.w3.org/2000/svg" viewBox="0 0 48 48" role="img" aria-label="GitHub">
  <rect width="48" height="48" rx="14" fill="#f2f2f2"/>
  <path fill="#080808" d="M24 10.5c-7.7 0-14 6.3-14 14 0 6.2 4 11.4 9.6 13.3.7.1 1-.3 1-.7v-2.5c-3.9.8-4.7-1.7-4.7-1.7-.6-1.6-1.6-2-1.6-2-1.3-.9.1-.9.1-.9 1.4.1 2.2 1.5 2.2 1.5 1.3 2.2 3.4 1.6 4.2 1.2.1-.9.5-1.6.9-1.9-3.1-.4-6.4-1.6-6.4-6.9 0-1.5.5-2.8 1.5-3.8-.1-.4-.6-1.9.2-3.8 0 0 1.2-.4 3.9 1.5 1.1-.3 2.3-.5 3.5-.5s2.4.2 3.5.5c2.7-1.9 3.9-1.5 3.9-1.5.8 1.9.3 3.4.2 3.8.9 1 1.5 2.3 1.5 3.8 0 5.3-3.3 6.5-6.4 6.9.5.4.9 1.3.9 2.6v3.8c0 .4.3.9 1 .7 5.6-1.9 9.6-7.1 9.6-13.3 0-7.7-6.3-14-14-14Z"/>
</svg>
